<svg t="1676798978749" class="icon" viewBox="0 0 1033 1024" version="1.1" xmlns="http://www.w3.org/2000/svg" p-id="1435" width="200" height="200"><path d="M516.644571 146.285714c150.893714 0 278.930286 67.401143 384 178.578286a775.497143 775.497143 0 0 1 116.297143 160.621714c4.022857 7.460571 6.765714 12.946286 8.265143 16.128l8.045714 17.225143-9.472 16.493714c-1.718857 2.998857-4.900571 8.265143-9.435428 15.36a907.154286 907.154286 0 0 1-125.915429 154.550858C778.825143 812.617143 654.226286 877.714286 516.644571 877.714286c-137.581714 0-262.180571-65.097143-371.785142-172.470857A907.154286 907.154286 0 0 1 18.944 550.765714a418.852571 418.852571 0 0 1-9.435429-15.36l-9.508571-16.530285 8.082286-17.188572c5.485714-11.739429 15.981714-31.341714 31.561143-56.173714A775.497143 775.497143 0 0 1 132.644571 324.864C237.714286 213.686857 365.750857 146.285714 516.644571 146.285714z m415.049143 338.029715a703.012571 703.012571 0 0 0-84.224-109.202286C755.090286 277.394286 645.010286 219.428571 516.644571 219.428571c-128.365714 0-238.445714 57.965714-330.825142 155.684572a703.012571 703.012571 0 0 0-102.546286 140.361143 834.706286 834.706286 0 0 0 112.786286 137.508571C293.193143 748.214857 401.152 804.571429 516.644571 804.571429c115.492571 0 223.451429-56.393143 320.585143-151.552a834.706286 834.706286 0 0 0 112.786286-137.545143c-5.229714-9.508571-11.337143-20.004571-18.322286-31.158857zM516.644571 329.142857c100.242286 0 182.857143 82.614857 182.857143 182.857143 0 101.083429-80.713143 182.857143-182.857143 182.857143-101.083429 0-182.857143-80.713143-182.857142-182.857143 0-101.083429 80.713143-182.857143 182.857142-182.857143z m0 73.142857c-61.549714 0-109.714286 48.786286-109.714285 109.714286 0 61.549714 48.786286 109.714286 109.714285 109.714286 61.549714 0 109.714286-48.786286 109.714286-109.714286 0-59.830857-49.883429-109.714286-109.714286-109.714286z" fill="#4C92E3" p-id="1436"></path></svg>