<?xml version="1.0" standalone="no"?><!DOCTYPE svg PUBLIC "-//W3C//DTD SVG 1.1//EN" "http://www.w3.org/Graphics/SVG/1.1/DTD/svg11.dtd"><svg t="1675515812280" class="icon" viewBox="0 0 1024 1024" version="1.1" xmlns="http://www.w3.org/2000/svg" p-id="1573" xmlns:xlink="http://www.w3.org/1999/xlink" width="200" height="200"><path d="M585.557333 168.874667c-33.024-56.064-114.133333-56.064-147.114666 0L86.4 767.402667C52.906667 824.277333 93.952 896 159.914667 896h704.170666c65.962667 0 107.008-71.68 73.514667-128.597333L585.557333 168.874667zM512 384a42.666667 42.666667 0 0 1 42.666667 42.666667v170.666666a42.666667 42.666667 0 1 1-85.333334 0v-170.666666a42.666667 42.666667 0 0 1 42.666667-42.666667z m42.666667 341.333333a42.666667 42.666667 0 1 1-85.333334 0 42.666667 42.666667 0 0 1 85.333334 0z" fill="#8a919f" p-id="1574"></path></svg>