<?xml version="1.0" standalone="no"?><!DOCTYPE svg PUBLIC "-//W3C//DTD SVG 1.1//EN" "http://www.w3.org/Graphics/SVG/1.1/DTD/svg11.dtd"><svg t="1675504277331" class="icon" viewBox="0 0 1024 1024" version="1.1" xmlns="http://www.w3.org/2000/svg" p-id="1448" xmlns:xlink="http://www.w3.org/1999/xlink" width="200" height="200"><path d="M847.36 107.52h-665.6c-69.12 0-125.44 56.32-125.44 125.44v401.92c0 69.12 56.32 125.44 125.44 125.44h38.4l15.36 181.76 158.72-181.76h453.12c69.12 0 125.44-56.32 125.44-125.44V232.96c0-69.12-56.32-125.44-125.44-125.44z m-563.2 376.32c-33.28 0-61.44-28.16-61.44-61.44 0-33.28 28.16-61.44 61.44-61.44 33.28 0 61.44 28.16 61.44 61.44 2.56 33.28-25.6 61.44-61.44 61.44z m230.4 0c-33.28 0-61.44-28.16-61.44-61.44 0-33.28 28.16-61.44 61.44-61.44 33.28 0 61.44 28.16 61.44 61.44 0 33.28-28.16 61.44-61.44 61.44z m227.84 0c-33.28 0-61.44-28.16-61.44-61.44 0-33.28 28.16-61.44 61.44-61.44 33.28 0 61.44 28.16 61.44 61.44 2.56 33.28-25.6 61.44-61.44 61.44z" fill="#8a919f" p-id="1449"></path></svg>