<?xml version="1.0" standalone="no"?><!DOCTYPE svg PUBLIC "-//W3C//DTD SVG 1.1//EN" "http://www.w3.org/Graphics/SVG/1.1/DTD/svg11.dtd"><svg t="1675515841475" class="icon" viewBox="0 0 1024 1024" version="1.1" xmlns="http://www.w3.org/2000/svg" p-id="2210" xmlns:xlink="http://www.w3.org/1999/xlink" width="200" height="200"><path d="M160.85 245v-84.15h74.3a32 32 0 0 0 32-32 32 32 0 0 0-32-32h-126.3a12 12 0 0 0-12 12V245a32 32 0 0 0 32 32 32 32 0 0 0 32-32zM780.33 160.85h82.82V245a32 32 0 0 0 32 32 32 32 0 0 0 32-32V108.85a12 12 0 0 0-12-12H780.33a32 32 0 0 0-32 32 32 32 0 0 0 32 32zM235.15 863.15h-74.3v-73a32 32 0 0 0-32-32 32 32 0 0 0-32 32v125a12 12 0 0 0 12 12h126.3a32 32 0 0 0 32-32 32 32 0 0 0-32-32zM863.15 790.15v73h-82.82a32 32 0 0 0-32 32 32 32 0 0 0 32 32h134.82a12 12 0 0 0 12-12v-125a32 32 0 0 0-32-32 32 32 0 0 0-32 32zM753.2 787.2H270.8a34 34 0 0 1-34-34V270.8a34 34 0 0 1 34-34h482.4a34 34 0 0 1 34 34v482.4a34 34 0 0 1-34 34z m-452.4-64h422.4V300.8H300.8z" p-id="2211"></path></svg>