<svg width="135" height="90" viewBox="0 0 135 90" fill="none" xmlns="http://www.w3.org/2000/svg">
  <path
    d="M74.2284 88.3575H123.414C124.977 88.3577 126.511 87.9588 127.864 87.2011C129.217 86.4433 130.341 85.3534 131.121 84.0409C131.902 82.7284 132.313 81.2396 132.312 79.7242C132.312 78.2089 131.899 76.7204 131.118 75.4086L98.0856 19.912C97.3048 18.5998 96.1817 17.5101 94.829 16.7525C93.4764 15.9948 91.942 15.596 90.38 15.596C88.8181 15.596 87.2836 15.9948 85.931 16.7525C84.5784 17.5101 83.4552 18.5998 82.6745 19.912L74.2284 34.1116L57.7148 6.34469C56.9334 5.03259 55.8097 3.94306 54.4567 3.18557C53.1037 2.42808 51.569 2.0293 50.0068 2.0293C48.4446 2.0293 46.9099 2.42808 45.5569 3.18557C44.2039 3.94306 43.0803 5.03259 42.2989 6.34469L1.1947 75.4086C0.41273 76.7204 0.000680577 78.2089 8.42355e-07 79.7242C-0.000678893 81.2396 0.410035 82.7284 1.19083 84.0409C1.97163 85.3534 3.09498 86.4433 4.44789 87.2011C5.80081 87.9588 7.33558 88.3577 8.89785 88.3575H39.7727C52.0057 88.3575 61.0271 83.1454 67.2346 72.9769L82.3054 47.6603L90.3776 34.1116L114.604 74.8088H82.3054L74.2284 88.3575ZM39.2694 74.7948L17.7227 74.7902L50.0212 20.5304L66.1369 47.6603L55.3468 65.7934C51.2244 72.391 46.5411 74.7948 39.2694 74.7948Z"
    fill="#00DC82"></path>
</svg>